<svg width="796" height="1024" viewBox="0 0 796 1024" fill="none" xmlns="http://www.w3.org/2000/svg">
<rect width="796" height="1024" fill="#2395FF"/>
<path fill-rule="evenodd" clip-rule="evenodd" d="M347.906 308.546C438.659 286.831 487.246 377.766 534.194 445.026C578.831 508.973 638.584 582.887 584.441 647.415C524.841 718.445 411.591 726.423 324.072 695.447C247.341 668.289 218.375 594.463 222.994 519.487C228.249 434.186 253.165 331.215 347.906 308.546Z" fill="white" fill-opacity="0.25"/>
<path d="M300.998 582.269C303.184 585.514 306.254 587.355 309.466 587.35L354.9 587.265C358.485 587.258 362.019 586.101 365.216 583.887L466.483 513.834C475.789 507.396 484.132 498.206 489.808 486.169C496.181 472.657 496.874 462.879 494.357 455.971C491.848 449.058 485.747 443.981 474.084 442.947C463.695 442.027 453.361 445.756 444.055 452.189L409.769 475.907L333.652 436.974C332.737 436.133 331.673 435.641 330.572 435.549C329.471 435.456 328.371 435.766 327.387 436.447L304.503 452.279C300.789 454.846 299.892 461.602 302.704 465.815L357.075 512.359L321.154 537.21L295.973 519.907C295.105 519.311 294.147 519.001 293.175 519.003C292.204 519.005 291.246 519.318 290.379 519.917L276.413 529.581C272.779 532.096 271.822 538.653 274.474 542.904L300.998 582.269Z" fill="white"/>
<path d="M289.445 708.037C290.212 709.174 291.289 709.819 292.415 709.817L308.351 709.787C309.609 709.785 310.848 709.379 311.969 708.604L347.488 684.058C350.753 681.802 353.679 678.582 355.67 674.365C357.905 669.63 358.148 666.204 357.265 663.784C356.385 661.362 354.245 659.583 350.154 659.22C346.51 658.898 342.886 660.205 339.622 662.459L327.596 670.769L300.898 657.127C300.577 656.833 300.204 656.661 299.818 656.628C299.432 656.596 299.046 656.704 298.701 656.943L290.675 662.49C289.372 663.39 289.057 665.757 290.043 667.233L309.114 683.541L296.515 692.249L287.683 686.186C287.378 685.977 287.042 685.869 286.701 685.869C286.361 685.87 286.025 685.979 285.721 686.189L280.822 689.576C279.547 690.457 279.212 692.754 280.142 694.244L289.445 708.037Z" fill="#E7F3FF"/>
<path d="M547.106 536.816C547.873 537.953 548.949 538.598 550.076 538.597L566.012 538.567C567.269 538.565 568.509 538.159 569.63 537.383L605.149 512.838C608.413 510.582 611.339 507.362 613.33 503.145C615.566 498.41 615.809 494.984 614.926 492.563C614.046 490.141 611.906 488.363 607.815 488C604.171 487.678 600.547 488.984 597.282 491.239L585.257 499.549L558.559 485.907C558.238 485.613 557.865 485.44 557.479 485.408C557.092 485.376 556.707 485.484 556.362 485.723L548.335 491.27C547.033 492.169 546.718 494.537 547.704 496.013L566.775 512.321L554.175 521.029L545.343 514.966C545.039 514.757 544.703 514.648 544.362 514.649C544.021 514.65 543.685 514.759 543.381 514.969L538.483 518.356C537.208 519.237 536.872 521.534 537.803 523.024L547.106 536.816Z" fill="#9DD0FF"/>
<path d="M442.554 349.864C442.946 350.433 443.495 350.755 444.071 350.754L452.208 350.739C452.85 350.738 453.483 350.535 454.056 350.147L472.193 337.875C473.86 336.747 475.354 335.137 476.371 333.028C477.512 330.661 477.636 328.948 477.186 327.738C476.736 326.526 475.643 325.637 473.554 325.456C471.694 325.295 469.843 325.948 468.176 327.075L462.035 331.23L448.402 324.409C448.239 324.262 448.048 324.176 447.851 324.16C447.654 324.144 447.457 324.198 447.28 324.317L443.182 327.091C442.517 327.541 442.356 328.724 442.86 329.462L452.598 337.616L446.164 341.97L441.654 338.939C441.499 338.834 441.327 338.78 441.153 338.78C440.979 338.781 440.807 338.835 440.652 338.94L438.151 340.634C437.5 341.074 437.328 342.223 437.803 342.968L442.554 349.864Z" fill="#C8E4FF"/>
</svg>
